<svg width="17" height="18" viewBox="0 0 17 18" fill="none" xmlns="http://www.w3.org/2000/svg">
<path d="M5.95539 9.0126L5.95539 4.28006C5.95539 4.2338 5.94133 4.18051 5.95946 4.14277C5.99645 4.06543 6.03677 3.9755 6.10262 3.92814C6.18659 3.86782 6.27907 3.91704 6.35047 3.98661C6.5633 4.19285 6.77576 4.39896 6.98785 4.60496L11.2734 8.77391C11.475 8.96967 11.4746 9.05478 11.2712 9.25239L6.41853 13.9712C6.38894 14.0001 6.36342 14.043 6.3279 14.0545C6.25392 14.0785 6.16181 14.1163 6.1004 14.0915C6.03899 14.0667 5.99571 13.9764 5.96242 13.9065C5.94244 13.8647 5.95539 13.8066 5.95539 13.7555L5.95539 9.0126Z" fill="#F9B500"/>
</svg>
